<svg width="55" height="55" viewBox="0 0 55 55" fill="none" xmlns="http://www.w3.org/2000/svg">
<path d="M36.4598 15.1392L23.6758 22.0185C22.9879 22.4197 22.4146 22.993 22.0133 23.6809L15.134 36.4649C14.6754 37.2675 14.8474 38.2421 15.478 38.93C15.8793 39.3313 16.3952 39.5606 16.9112 39.5606C17.2552 39.5606 17.5991 39.5033 17.8858 39.3313L30.7271 32.5093C31.415 32.1081 31.9883 31.5348 32.3896 30.8469L39.2115 18.0055C39.6701 17.203 39.4982 16.2284 38.8676 15.5405C38.2943 14.8525 37.3197 14.7379 36.4598 15.1392Z" fill="url(#paint0_linear_0_41)"/>
<path d="M27.2305 0.00488281C12.2107 0.00488281 0 12.2156 0 27.2353C0 42.2551 12.2107 54.4658 27.2305 54.4658C42.2502 54.4658 54.4609 42.2551 54.4609 27.2353C54.4609 12.2156 42.2502 0.00488281 27.2305 0.00488281ZM27.2305 49.3064C15.0771 49.3064 5.15946 39.4461 5.15946 27.2353C5.15946 15.0246 15.0771 5.16434 27.2305 5.16434C39.3839 5.16434 49.3015 15.082 49.3015 27.2353C49.3015 39.3887 39.3839 49.3064 27.2305 49.3064Z" fill="url(#paint1_linear_0_41)"/>
<defs>
<linearGradient id="paint0_linear_0_41" x1="27.1728" y1="14.9084" x2="27.1728" y2="39.5606" gradientUnits="userSpaceOnUse">
<stop stop-color="#AF47F8"/>
<stop offset="0.445" stop-color="#595FFB"/>
<stop offset="1" stop-color="#1ECBE3"/>
</linearGradient>
<linearGradient id="paint1_linear_0_41" x1="27.2305" y1="0.00488281" x2="27.2305" y2="54.4658" gradientUnits="userSpaceOnUse">
<stop stop-color="#AF47F8"/>
<stop offset="0.445" stop-color="#595FFB"/>
<stop offset="1" stop-color="#1ECBE3"/>
</linearGradient>
</defs>
</svg>
