<svg width="32" height="23" viewBox="0 0 32 23" fill="none" xmlns="http://www.w3.org/2000/svg">
<path d="M29.768 16.1136C29.1956 16.3357 28.5688 16.3718 28.2333 16.3718H24.3727C21.6257 16.3718 19.3903 14.143 19.3903 11.4058C19.3903 8.6687 21.6257 6.43983 24.3727 6.43983H28.2333C28.8008 6.43983 29.3305 6.53524 29.8124 6.71453L29.8108 4.387C29.8108 1.96897 27.8418 0 25.4238 0L4.387 0.00164491C1.96897 0.00164491 0 1.97061 0 4.38864V18.4247C0 20.8427 1.96897 22.8117 4.387 22.8117L25.4255 22.81C27.8435 22.81 29.8125 20.8411 29.8125 18.423V16.0955C29.796 16.1004 29.7828 16.1087 29.768 16.1136Z" fill="url(#paint0_linear_0_12)"/>
<path d="M29.2723 8.38563C28.968 8.25897 28.6192 8.19482 28.231 8.19482H24.3704C22.5889 8.19482 21.1414 9.63578 21.1414 11.4057C21.1414 13.1756 22.5889 14.6166 24.3704 14.6166H28.231C28.6192 14.6166 28.9679 14.5524 29.1785 14.4587C30.5438 14.0622 31.46 12.8351 31.46 11.4057C31.46 9.97628 30.5421 8.74916 29.2723 8.38563Z" fill="url(#paint1_linear_0_12)"/>
<defs>
<linearGradient id="paint0_linear_0_12" x1="2.36908" y1="3" x2="28.3496" y2="20.1875" gradientUnits="userSpaceOnUse">
<stop stop-color="#AF47F8"/>
<stop offset="0.445" stop-color="#595FFB"/>
<stop offset="1" stop-color="#1ECBE3"/>
</linearGradient>
<linearGradient id="paint1_linear_0_12" x1="21.9614" y1="9.03936" x2="29.7418" y2="15.3678" gradientUnits="userSpaceOnUse">
<stop stop-color="#AF47F8"/>
<stop offset="0.445" stop-color="#595FFB"/>
<stop offset="1" stop-color="#1ECBE3"/>
</linearGradient>
</defs>
</svg>
