<svg width="21" height="26" viewBox="0 0 21 26" fill="none" xmlns="http://www.w3.org/2000/svg">
<path d="M20.1001 6.6001V4.6001C20.1001 1.8001 15.0999 0.600098 10.3999 0.600098C5.6999 0.600098 0.700195 1.9001 0.700195 4.6001V6.6001C0.700195 8.4001 1.4002 10.2 2.7002 11.5L7.7002 16.3999C8.0002 16.6999 8.1001 16.9999 8.1001 17.3999V23.8C8.1001 24.2 8.3002 24.5001 8.7002 24.6001L11.6001 25.5C12.1001 25.6 12.6001 25.3 12.6001 24.7V17.5C12.6001 17.1 12.8 16.8 13 16.5L18.1001 11.5C19.4001 10.2 20.1001 8.4001 20.1001 6.6001ZM10.3999 6.5C5.5999 6.5 2.9999 5.19995 2.8999 4.69995C2.9999 4.19995 5.5999 2.8999 10.3999 2.8999C15.1999 2.8999 17.6999 4.19995 17.8999 4.69995C17.6999 5.19995 15.1999 6.5 10.3999 6.5Z" fill="black"/>
</svg>
