<svg width="53" height="7" viewBox="0 0 53 7" fill="none" xmlns="http://www.w3.org/2000/svg">
<path d="M13.6246 4.60352H14.9436V5.21663H12.8217V1.36123H13.6246V4.60352Z" fill="white"/>
<path d="M18.4534 2.15662V5.21663H17.6448V4.82998C17.5415 4.96255 17.4058 5.06749 17.2376 5.14482C17.0732 5.21847 16.8935 5.25529 16.6985 5.25529C16.4499 5.25529 16.2301 5.20558 16.0389 5.10616C15.8478 5.00305 15.6967 4.85392 15.5859 4.65876C15.4788 4.45991 15.4253 4.22424 15.4253 3.95175V2.15662H16.2282V3.84128C16.2282 4.08431 16.2913 4.27211 16.4174 4.40468C16.5436 4.53356 16.7157 4.598 16.9336 4.598C17.1554 4.598 17.3293 4.53356 17.4555 4.40468C17.5817 4.27211 17.6448 4.08431 17.6448 3.84128V2.15662H18.4534Z" fill="white"/>
<path d="M23.1913 2.11243C23.5813 2.11243 23.8948 2.22842 24.1319 2.46041C24.3727 2.68871 24.4932 3.00907 24.4932 3.42149V5.21663H23.6903V3.52644C23.6903 3.28709 23.6272 3.10481 23.501 2.97961C23.3748 2.85073 23.2028 2.78629 22.9848 2.78629C22.7669 2.78629 22.593 2.85073 22.463 2.97961C22.3368 3.10481 22.2737 3.28709 22.2737 3.52644V5.21663H21.4708V3.52644C21.4708 3.28709 21.4077 3.10481 21.2815 2.97961C21.1554 2.85073 20.9833 2.78629 20.7654 2.78629C20.5436 2.78629 20.3678 2.85073 20.2378 2.97961C20.1116 3.10481 20.0485 3.28709 20.0485 3.52644V5.21663H19.2456V2.15662H20.0485V2.52669C20.1517 2.39781 20.2836 2.29654 20.4442 2.2229C20.6086 2.14925 20.7883 2.11243 20.9833 2.11243C21.2318 2.11243 21.4536 2.16398 21.6486 2.26708C21.8436 2.36651 21.9946 2.51012 22.1016 2.69792C22.2049 2.52117 22.354 2.3794 22.549 2.27261C22.7478 2.16582 22.9619 2.11243 23.1913 2.11243Z" fill="white"/>
<path d="M25.6623 1.79207C25.5208 1.79207 25.4023 1.74972 25.3067 1.66502C25.2149 1.57665 25.169 1.46802 25.169 1.33914C25.169 1.21026 25.2149 1.10347 25.3067 1.01878C25.4023 0.930401 25.5208 0.886213 25.6623 0.886213C25.8037 0.886213 25.9203 0.930401 26.0121 1.01878C26.1077 1.10347 26.1555 1.21026 26.1555 1.33914C26.1555 1.46802 26.1077 1.57665 26.0121 1.66502C25.9203 1.74972 25.8037 1.79207 25.6623 1.79207ZM26.058 2.15662V5.21663H25.2551V2.15662H26.058Z" fill="white"/>
<path d="M28.6119 2.11243C28.9904 2.11243 29.2963 2.22842 29.5295 2.46041C29.7628 2.68871 29.8794 3.00907 29.8794 3.42149V5.21663H29.0765V3.52644C29.0765 3.28341 29.0134 3.09745 28.8872 2.96857C28.761 2.836 28.589 2.76972 28.371 2.76972C28.1493 2.76972 27.9734 2.836 27.8434 2.96857C27.7172 3.09745 27.6542 3.28341 27.6542 3.52644V5.21663H26.8513V2.15662H27.6542V2.53774C27.7612 2.40517 27.8969 2.30207 28.0614 2.22842C28.2296 2.15109 28.4131 2.11243 28.6119 2.11243Z" fill="white"/>
<path d="M30.4364 3.67557C30.4364 3.36626 30.4995 3.09193 30.6257 2.85257C30.7557 2.61322 30.9296 2.42911 31.1476 2.30023C31.3693 2.17134 31.6159 2.1069 31.8874 2.1069C32.1244 2.1069 32.3309 2.15293 32.5068 2.24499C32.6865 2.33705 32.8299 2.45304 32.9369 2.59297V2.15662H33.7455V5.21663H32.9369V4.76923C32.8337 4.91284 32.6903 5.03251 32.5068 5.12825C32.3271 5.22031 32.1187 5.26634 31.8817 5.26634C31.614 5.26634 31.3693 5.20006 31.1476 5.06749C30.9296 4.93493 30.7557 4.74897 30.6257 4.50962C30.4995 4.26659 30.4364 3.98857 30.4364 3.67557ZM32.9369 3.68662C32.9369 3.49882 32.8987 3.33864 32.8222 3.20608C32.7457 3.06983 32.6425 2.96673 32.5125 2.89676C32.3825 2.82312 32.243 2.78629 32.0939 2.78629C31.9447 2.78629 31.8071 2.82127 31.6809 2.89124C31.5548 2.9612 31.4515 3.06431 31.3712 3.20055C31.2948 3.33312 31.2565 3.49146 31.2565 3.67557C31.2565 3.85969 31.2948 4.02171 31.3712 4.16164C31.4515 4.29789 31.5548 4.40283 31.6809 4.47648C31.8109 4.55013 31.9486 4.58695 32.0939 4.58695C32.243 4.58695 32.3825 4.55197 32.5125 4.482C32.6425 4.40836 32.7457 4.30525 32.8222 4.17269C32.8987 4.03644 32.9369 3.87442 32.9369 3.68662Z" fill="white"/>
<path d="M40.3008 2.15662L39.3717 5.21663H38.5057L37.9265 3.07904L37.3472 5.21663H36.4755L35.5407 2.15662H36.3551L36.9171 4.48753L37.525 2.15662H38.3738L38.9703 4.482L39.5323 2.15662H40.3008Z" fill="white"/>
<path d="M40.5288 3.67557C40.5288 3.36626 40.5919 3.09193 40.718 2.85257C40.848 2.61322 41.022 2.42911 41.2399 2.30023C41.4617 2.17134 41.7083 2.1069 41.9797 2.1069C42.2168 2.1069 42.4232 2.15293 42.5991 2.24499C42.7788 2.33705 42.9222 2.45304 43.0293 2.59297V2.15662H43.8379V5.21663H43.0293V4.76923C42.926 4.91284 42.7826 5.03251 42.5991 5.12825C42.4194 5.22031 42.2111 5.26634 41.974 5.26634C41.7064 5.26634 41.4617 5.20006 41.2399 5.06749C41.022 4.93493 40.848 4.74897 40.718 4.50962C40.5919 4.26659 40.5288 3.98857 40.5288 3.67557ZM43.0293 3.68662C43.0293 3.49882 42.991 3.33864 42.9146 3.20608C42.8381 3.06983 42.7349 2.96673 42.6049 2.89676C42.4749 2.82312 42.3353 2.78629 42.1862 2.78629C42.0371 2.78629 41.8994 2.82127 41.7733 2.89124C41.6471 2.9612 41.5439 3.06431 41.4636 3.20055C41.3871 3.33312 41.3489 3.49146 41.3489 3.67557C41.3489 3.85969 41.3871 4.02171 41.4636 4.16164C41.5439 4.29789 41.6471 4.40283 41.7733 4.47648C41.9033 4.55013 42.0409 4.58695 42.1862 4.58695C42.3353 4.58695 42.4749 4.55197 42.6049 4.482C42.7349 4.40836 42.8381 4.30525 42.9146 4.17269C42.991 4.03644 43.0293 3.87442 43.0293 3.68662Z" fill="white"/>
<path d="M45.425 1.12925V5.21663H44.6221V1.12925H45.425Z" fill="white"/>
<path d="M47.0212 1.12925V5.21663H46.2183V1.12925H47.0212Z" fill="white"/>
<path d="M50.768 3.62034C50.768 3.73081 50.7603 3.83023 50.745 3.91861H48.4223C48.4415 4.13955 48.5218 4.31262 48.6632 4.43782C48.8047 4.56301 48.9787 4.62561 49.1851 4.62561C49.4833 4.62561 49.6955 4.50226 49.8217 4.25554H50.6877C50.5959 4.55013 50.4201 4.79316 50.1601 4.98464C49.9001 5.17244 49.5808 5.26634 49.2023 5.26634C48.8965 5.26634 48.6212 5.2019 48.3765 5.07302C48.1356 4.94045 47.9463 4.7545 47.8087 4.51514C47.6749 4.27579 47.608 3.99962 47.608 3.68662C47.608 3.36994 47.6749 3.09193 47.8087 2.85257C47.9425 2.61322 48.1299 2.42911 48.3707 2.30023C48.6116 2.17134 48.8888 2.1069 49.2023 2.1069C49.5044 2.1069 49.7739 2.1695 50.011 2.2947C50.2518 2.4199 50.4373 2.59849 50.5673 2.83048C50.7011 3.05878 50.768 3.32207 50.768 3.62034ZM49.9364 3.3994C49.9326 3.20055 49.858 3.04221 49.7127 2.92438C49.5674 2.80286 49.3897 2.74211 49.1794 2.74211C48.9806 2.74211 48.8123 2.80102 48.6747 2.91886C48.5409 3.03301 48.4587 3.19319 48.4281 3.3994H49.9364Z" fill="white"/>
<path d="M52.2888 2.79182V4.27211C52.2888 4.37522 52.3137 4.4507 52.3634 4.49857C52.4169 4.54276 52.5049 4.56486 52.6272 4.56486H53V5.21663H52.4953C51.8186 5.21663 51.4802 4.89995 51.4802 4.26659V2.79182H51.1017V2.15662H51.4802V1.3999H52.2888V2.15662H53V2.79182H52.2888Z" fill="white"/>
<path d="M9.4845 4.94462C9.30211 5.01277 9.10243 5.02387 8.99553 5.02387H7.76548C6.89025 5.02387 6.17801 4.33992 6.17801 3.5C6.17801 2.66008 6.89025 1.97613 7.76548 1.97613H8.99553C9.17634 1.97613 9.3451 2.00541 9.49865 2.06042L9.49813 1.3462C9.49813 0.604199 8.87079 0 8.10037 0L1.39776 0.000504759C0.627341 0.000504759 0 0.604704 0 1.3467V5.6538C0 6.3958 0.627341 7 1.39776 7L8.10091 6.9995C8.87133 6.9995 9.49867 6.3953 9.49867 5.6533V4.93907C9.49343 4.94059 9.48922 4.94311 9.4845 4.94462Z" fill="url(#paint0_linear_0_33)"/>
<path d="M9.32656 2.57322C9.2296 2.53435 9.11849 2.51467 8.9948 2.51467H7.76475C7.19716 2.51467 6.73595 2.95684 6.73595 3.49996C6.73595 4.04308 7.19716 4.48525 7.76475 4.48525H8.9948C9.11849 4.48525 9.22959 4.46556 9.29668 4.43679C9.73168 4.31514 10.0236 3.93859 10.0236 3.49996C10.0236 3.06133 9.73115 2.68477 9.32656 2.57322Z" fill="url(#paint1_linear_0_33)"/>
<defs>
<linearGradient id="paint0_linear_0_33" x1="6.99695" y1="2.77382" x2="9.40117" y2="4.80425" gradientUnits="userSpaceOnUse">
<stop stop-color="#AF47F8"/>
<stop offset="0.445" stop-color="#595FFB"/>
<stop offset="1" stop-color="#1ECBE3"/>
</linearGradient>
<linearGradient id="paint1_linear_0_33" x1="6.99695" y1="2.77382" x2="9.40117" y2="4.80425" gradientUnits="userSpaceOnUse">
<stop stop-color="#AF47F8"/>
<stop offset="0.445" stop-color="#595FFB"/>
<stop offset="1" stop-color="#1ECBE3"/>
</linearGradient>
</defs>
</svg>
